<?xml version="1.0" encoding="UTF-8"?>
<svg preserveAspectRatio="xMidYMid meet" viewBox="0 0 773 773" style="width: 100%; height: 100%;">
<path d="M0 0 C1.01286617 -0.00235223 2.02573233 -0.00470446 3.06929141 -0.00712797 C6.47885398 -0.01380922 9.88837837 -0.01336001 13.29794693 -0.01294994 C15.7610528 -0.01624912 18.22415813 -0.0199748 20.68726277 -0.02409142 C26.75693247 -0.03306194 32.82658986 -0.03733813 38.89626445 -0.03961039 C46.16663361 -0.0425746 53.43699311 -0.05127339 60.7073572 -0.06002467 C78.28172083 -0.08086274 95.85608612 -0.09133846 113.43045922 -0.10015428 C121.7473629 -0.10436231 130.06426585 -0.10958414 138.38116891 -0.11483881 C166.85979841 -0.1327298 195.33842811 -0.14772447 223.81706238 -0.155159 C225.60480005 -0.15563375 227.39253772 -0.15610964 229.1802754 -0.15658666 C230.06682036 -0.15682303 230.95336532 -0.15705941 231.86677529 -0.15730295 C236.35833853 -0.15850413 240.84990176 -0.15971958 245.341465 -0.16094494 C246.23282479 -0.16118509 247.12418458 -0.16142524 248.04255528 -0.16167267 C276.92924448 -0.16956199 305.81589257 -0.19298583 334.70256383 -0.22550088 C365.25400291 -0.2598269 395.80541794 -0.27951277 426.35687661 -0.28280324 C429.71325319 -0.28322076 433.06962975 -0.28370032 436.42600632 -0.28422642 C437.25242084 -0.28434961 438.07883536 -0.2844728 438.93029275 -0.28459973 C452.21002584 -0.28692846 465.48971108 -0.30257031 478.76942715 -0.32306826 C492.12861533 -0.34336104 505.48774625 -0.34878729 518.84694698 -0.33929763 C526.77503812 -0.33409585 534.7029381 -0.33989722 542.63100158 -0.3618323 C548.56441805 -0.37700215 554.49769552 -0.3710511 560.43111899 -0.35716178 C562.8215569 -0.35478821 565.21201343 -0.35909605 567.60242292 -0.37099043 C584.44538541 -0.44956664 600.79615438 0.43791951 616.26968765 7.82172108 C617.00912613 8.16420887 617.74856461 8.50669666 618.51041031 8.85956287 C642.45116546 20.3168132 661.4913481 40.91688297 670.33218765 65.94672108 C674.44694205 78.07597423 676.11450586 89.59925717 676.08582211 102.40117645 C676.08757514 103.4018188 676.08932818 104.40246115 676.09113434 105.43342599 C676.09578279 108.78330519 676.0933318 112.13314075 676.09090042 115.48302174 C676.09276897 117.91031931 676.09506985 120.33761658 676.09776574 122.76491338 C676.10260713 128.04087024 676.10433874 133.31681449 676.10330963 138.59277248 C676.101783 146.4386322 676.10595024 154.28448178 676.11118426 162.13033953 C676.12085076 176.95972062 676.12366824 191.78909826 676.12424131 206.61848214 C676.12470103 218.07171501 676.12676024 229.52494654 676.12994194 240.97817898 C676.1308395 244.27613379 676.13172931 247.57408861 676.13261682 250.87204343 C676.13283787 251.69194866 676.13305891 252.51185389 676.13328666 253.35660473 C676.13944014 276.41647781 676.1433873 299.47635043 676.14294338 322.53622437 C676.1429278 323.40548186 676.14291222 324.27473935 676.14289617 325.17033797 C676.14281307 329.57599658 676.14271403 333.9816552 676.14261147 338.38731381 C676.14258155 339.69975927 676.14258155 339.69975927 676.14255103 341.03871878 C676.14251059 342.80810842 676.14246879 344.57749805 676.14242563 346.34688769 C676.14181295 373.87276517 676.14931856 401.39863033 676.1629982 428.92450428 C676.17836464 459.85720572 676.18696408 490.78989907 676.18603498 521.72260457 C676.18596035 525.02213116 676.18591164 528.32165776 676.18588066 531.62118435 C676.18586318 532.83980416 676.18586318 532.83980416 676.18584534 534.08304255 C676.18581459 547.14673263 676.19219559 560.21041199 676.20081293 573.27409889 C676.20929707 586.40767993 676.21027339 599.54124533 676.2037036 612.6748276 C676.20001304 620.47263447 676.20182555 628.27039377 676.21164594 636.06819559 C676.21836552 641.89740547 676.21457917 647.72657831 676.20677272 653.55578784 C676.20523633 655.90905009 676.20705913 658.26231751 676.2126328 660.61557367 C676.27675467 689.61549843 671.84745009 715.76766091 651.95718765 738.13422108 C651.35648453 738.87672108 650.7557814 739.61922108 650.13687515 740.38422108 C634.74119055 758.93634311 610.84850961 770.16528674 587.1583963 772.94131862 C578.50671458 773.69950694 569.7474004 773.41017001 561.07162857 773.39491749 C558.63476642 773.3979405 556.19790522 773.40183074 553.76104569 773.40651006 C548.47649288 773.41463883 543.19199219 773.41659609 537.90743828 773.41300678 C530.04870997 773.40768326 522.19001896 773.41381164 514.3312947 773.42208972 C499.47652739 773.43730774 484.62177716 773.43903703 469.76700369 773.43656669 C458.29339114 773.43473201 446.81978418 773.43649731 435.34617233 773.44079113 C433.6961028 773.44139354 432.04603327 773.44199474 430.39596374 773.44259473 C427.90927325 773.44350202 425.42258276 773.44441068 422.93589227 773.44532708 C399.82385875 773.45375339 376.71182732 773.45809455 353.59979248 773.45392036 C352.72900899 773.45376399 351.8582255 773.45360761 350.96105462 773.4534465 C346.5478701 773.45264075 342.13468559 773.45179498 337.72150108 773.4509332 C336.84507451 773.45076211 335.96864794 773.45059102 335.06566299 773.45041475 C333.29331665 773.45006809 331.5209703 773.44971956 329.74862396 773.44936916 C302.17506613 773.44401277 274.60154029 773.45194136 247.02798843 773.47040272 C216.02747286 773.49113437 185.0269771 773.50184319 154.02645421 773.49782723 C150.71879149 773.4974319 147.41112876 773.49707035 144.10346603 773.49672985 C143.2890748 773.49663912 142.47468356 773.49654839 141.6356138 773.49645491 C129.35974772 773.49529059 117.08390169 773.50192463 104.80804062 773.51254177 C90.84091024 773.52460955 76.87382394 773.52613458 62.90669289 773.5137516 C55.09836696 773.50713808 47.29014653 773.50871914 39.4818291 773.52234012 C33.63962441 773.53159375 27.79750485 773.52503069 21.95530406 773.51249232 C19.60076249 773.50984722 17.24620852 773.51220597 14.89167914 773.52022818 C-0.99091772 773.57056308 -16.67234842 773.09790497 -31.73031235 767.44672108 C-32.77082748 767.06544056 -32.77082748 767.06544056 -33.83236313 766.67645741 C-45.57868697 762.19137535 -55.70054888 755.54806085 -65.04281235 747.13422108 C-65.8110936 746.44843983 -66.57937485 745.76265858 -67.37093735 745.05609608 C-84.36655858 729.01127883 -95.56606763 705.88261399 -97.2293307 682.5136218 C-97.29883871 679.8378403 -97.31197154 677.16844069 -97.30008125 674.49178696 C-97.30358733 673.47483994 -97.3070934 672.45789293 -97.31070572 671.41012934 C-97.31997852 668.01674851 -97.31510701 664.62354086 -97.31023788 661.23015308 C-97.31397622 658.76685591 -97.31857847 656.30355992 -97.32396853 653.84026581 C-97.33364132 648.49173311 -97.33711656 643.14325018 -97.3350563 637.79471302 C-97.33199996 629.84075726 -97.34034433 621.88684138 -97.35080556 613.93289339 C-97.37012793 598.89794616 -97.37577313 583.8630126 -97.37691967 568.82805442 C-97.37783952 557.21424216 -97.38196018 545.60043524 -97.38832092 533.98662472 C-97.39011608 530.64095198 -97.3918957 527.29527923 -97.39367068 523.94960648 C-97.39411277 523.11780647 -97.39455487 522.28600646 -97.39501036 521.42900038 C-97.40731565 498.03761438 -97.41521182 474.64623023 -97.41432381 451.25484085 C-97.41429265 450.37327052 -97.41426149 449.4917002 -97.41422939 448.58341562 C-97.41406318 444.11548156 -97.4138651 439.64754751 -97.41365997 435.17961346 C-97.41362008 434.29230283 -97.41358019 433.4049922 -97.41353909 432.49079337 C-97.41345822 430.696435 -97.41337462 428.90207663 -97.41328831 427.10771826 C-97.41206317 399.19880708 -97.42707048 371.28994452 -97.45443344 343.38104725 C-97.48518021 312.00807535 -97.50236435 280.6351354 -97.500507 249.26214749 C-97.50035774 245.91427426 -97.50026032 242.56640103 -97.50019836 239.21852779 C-97.50017506 238.39422892 -97.50015175 237.56993006 -97.50012773 236.72065243 C-97.50006628 223.47746095 -97.51281728 210.23431181 -97.53006289 196.9911329 C-97.54704849 183.67175818 -97.54897037 170.35244513 -97.53584425 157.03306555 C-97.52847442 149.12939207 -97.53205386 141.22590646 -97.55172893 133.32225304 C-97.56520413 127.40721498 -97.55756468 121.4923223 -97.54198249 115.57728554 C-97.53891824 113.19440148 -97.54252305 110.81149688 -97.55370264 108.42863708 C-97.69430586 76.31747432 -89.11469753 50.53233679 -66.41781235 27.07172108 C-60.29651744 20.93674949 -53.53661283 16.42861359 -46.04281235 12.13422108 C-45.0785936 11.5696117 -44.11437485 11.00500233 -43.12093735 10.42328358 C-29.95162973 3.25656092 -14.89003526 -0.0234989 0 0 Z " fill="#029EDC" transform="translate(97.04281234741211,-0.13422107696533203)"/>
<path d="M0 0 C14.49332747 10.39420455 25.99597795 24.68790778 29.14453125 42.56640625 C29.61623629 46.11164206 29.70703125 49.33248494 29.70703125 52.94140625 C-13.52296875 52.94140625 -56.75296875 52.94140625 -101.29296875 52.94140625 C-101.29296875 36.2381336 -95.33194148 23.39284597 -84.29296875 10.94140625 C-83.761875 10.31621094 -83.23078125 9.69101563 -82.68359375 9.046875 C-61.74487025 -13.91316091 -25.3987743 -16.08704856 0 0 Z " fill="#FDFEFE" transform="translate(577.29296875,131.05859375)"/>
<path d="M0 0 C3.54539088 2.80765236 6.79553089 5.81157998 10 9 C10.69996094 9.66515625 11.39992188 10.3303125 12.12109375 11.015625 C23.14711584 22.27807252 28 36.55892489 28 52 C-15.23 52 -58.46 52 -103 52 C-103 35.04697604 -95.70741695 20.10979953 -84 8 C-78.19561354 2.66179261 -72.00570744 -1.42873117 -65 -5 C-64.0925 -5.53625 -63.185 -6.0725 -62.25 -6.625 C-42.17063113 -15.1201176 -17.89778854 -12.41025903 0 0 Z " fill="#FDFEFE" transform="translate(268,132)"/>
<path d="M0 0 C1.5319425 1.1520405 3.05424894 2.31711206 4.5625 3.5 C6.109375 4.6446875 6.109375 4.6446875 7.6875 5.8125 C18.60957453 16.02226532 26.39219466 29.59723669 28.5625 44.5 C28.5625 46.81 28.5625 49.12 28.5625 51.5 C-14.6675 51.5 -57.8975 51.5 -102.4375 51.5 C-102.4375 31.33738062 -93.29240746 18.35490746 -79.59375 4.65625 C-58.34498793 -14.92594249 -23.63810864 -16.34019859 0 0 Z " fill="#FDFEFE" transform="translate(578.4375,264.5)"/>
<path d="M0 0 C12.02054824 10.03570818 21.29896199 23.07862999 24.1875 38.6875 C24.1875 41.9875 24.1875 45.2875 24.1875 48.6875 C-18.7125 48.6875 -61.6125 48.6875 -105.8125 48.6875 C-105.8125 31.20240759 -100.0126383 17.84261005 -87.75390625 5.4765625 C-63.43642885 -17.99403758 -27.25535401 -20.08539155 0 0 Z " fill="#FDFEFE" transform="translate(271.8125,267.3125)"/>
<path d="M0 0 C43.23 0 86.46 0 131 0 C129.83756943 15.11159743 129.83756943 15.11159743 126.9375 21.125 C126.62731934 21.7960376 126.31713867 22.4670752 125.99755859 23.15844727 C123.04241753 29.32470391 119.4230494 34.77880634 115 40 C114.33484375 40.78890625 113.6696875 41.5778125 112.984375 42.390625 C103.69688959 52.50366467 88.47377018 61.08524791 74.58081055 62.19287109 C53.63745593 62.81917893 37.36455655 59.7787275 20.8125 45.875 C11.94544451 37.47838314 6.03561138 27.47944917 2 16 C1.566875 14.783125 1.13375 13.56625 0.6875 12.3125 C0 9 0 9 0 0 Z " fill="#FEFEFE" transform="translate(476,622)"/>
<path d="M0 0 C43.23 0 86.46 0 131 0 C129.36060039 19.67279537 122.08486539 33.84779253 107.62109375 47.1953125 C95.49638734 57.43222353 81.63932469 62.60692886 65.8125 62.5 C64.31529419 62.49141968 64.31529419 62.49141968 62.7878418 62.48266602 C45.06383313 62.05961445 30.28689357 54.80735402 17.47265625 42.6015625 C10.83208892 35.61480446 6.63684678 27.867368 3 19 C2.63777344 18.12601562 2.27554687 17.25203125 1.90234375 16.3515625 C-0.21514046 10.83327033 0 5.97794676 0 0 Z " fill="#FEFEFE" transform="translate(321,372)"/>
<path d="M0 0 C42.9 0 85.8 0 130 0 C130 16.77742851 123.11797251 31.44406197 111.56640625 43.62109375 C94.72008835 59.23663043 77.23202691 62.85251756 54.88427734 62.17480469 C49.36928413 61.84056267 44.89836483 60.47111539 40 58 C38.93007812 57.50242187 37.86015625 57.00484375 36.7578125 56.4921875 C29.08772765 52.68371581 23.00722214 48.07112876 17 42 C16.37609375 41.40960937 15.7521875 40.81921875 15.109375 40.2109375 C10.98368193 35.99232342 8.33626922 31.21899866 5.6875 26 C5.34960449 25.33540771 5.01170898 24.67081543 4.66357422 23.98608398 C0.65414083 15.7286813 0 9.5157849 0 0 Z " fill="#FEFEFE" transform="translate(166,622)"/>
</svg>
