<svg xmlns="http://www.w3.org/2000/svg" preserveAspectRatio="xMidYMid meet" viewBox="0 0 773 773" width="500" height="500">
<path d="M0 0 C255.09 0 510.18 0 773 0 C773 255.09 773 510.18 773 773 C517.91 773 262.82 773 0 773 C0 517.91 0 262.82 0 0 Z " fill="#294db4" transform="translate(0,0)"/>
<path d="M0 0 C30.36 0 60.72 0 92 0 C92 255.09 92 510.18 92 773 C-163.09 773 -418.18 773 -681 773 C-681 742.64 -681 712.28 -681 681 C-680.67 681 -680.34 681 -680 681 C-679.92523437 681.80179688 -679.85046875 682.60359375 -679.7734375 683.4296875 C-677.41341663 703.83692683 -669.49722675 722.47676247 -656 738 C-655.54496094 738.598125 -655.08992187 739.19625 -654.62109375 739.8125 C-641.26791233 757.032125 -617.07250018 768.01892873 -596 771 C-592.432723 771.25124248 -588.8858296 771.27306819 -585.31071377 771.25726891 C-584.28870163 771.26077498 -583.2666895 771.26428105 -582.2137073 771.26789337 C-578.80309655 771.27716688 -575.39265807 771.27229448 -571.98204041 771.26742554 C-569.50636884 771.27116383 -567.03069845 771.27576607 -564.55502993 771.28115618 C-559.17946016 771.29082927 -553.80393991 771.29430416 -548.42836571 771.29224396 C-540.43420626 771.28918771 -532.4400865 771.29753178 -524.44593478 771.30799321 C-509.33502318 771.3273159 -494.22412518 771.3329608 -479.11320268 771.33410732 C-467.44075198 771.33502716 -455.76830659 771.33914776 -444.09585762 771.34550858 C-440.73333393 771.34730373 -437.37081024 771.34908336 -434.00828654 771.35085833 C-433.17229789 771.35130043 -432.33630924 771.35174252 -431.47498761 771.35219802 C-407.96571407 771.36450336 -384.45644238 771.37239946 -360.94716549 771.37151146 C-360.06114658 771.3714803 -359.17512767 771.37144914 -358.26225971 771.37141704 C-353.77177601 771.37125083 -349.28129231 771.37105275 -344.79080861 771.37084763 C-343.45312444 771.37078779 -343.45312444 771.37078779 -342.08841634 771.37072675 C-340.2850007 771.37064587 -338.48158506 771.37056228 -336.67816943 771.37047596 C-308.62828036 771.36925082 -280.57843968 771.3842582 -252.52856445 771.41162109 C-220.99737944 771.44236753 -189.46622622 771.45955203 -157.93502527 771.45769465 C-154.5703011 771.45754539 -151.20557692 771.45744798 -147.84085274 771.45738602 C-147.01240442 771.45736271 -146.1839561 771.4573394 -145.33040328 771.45731538 C-132.02026391 771.45725394 -118.71016666 771.4700052 -105.40003979 771.48725055 C-92.01345271 771.50423574 -78.62692701 771.50615834 -65.2403351 771.4930319 C-57.29666984 771.48566181 -49.3531915 771.48924233 -41.4095462 771.50891658 C-35.4647381 771.52239092 -29.52007467 771.51475306 -23.57526786 771.49917014 C-21.18027084 771.49610569 -18.78525337 771.49971148 -16.39028048 771.51089029 C1.94810882 771.59077641 18.22630653 769.99615512 35 762 C35.66515625 761.71769531 36.3303125 761.43539062 37.015625 761.14453125 C60.17808709 750.77981607 75.61990092 729.85214794 85 707 C88.83220224 696.77623189 90.30601859 686.21045587 90.25447559 675.33636189 C90.25768207 674.3171273 90.26088855 673.29789272 90.26419219 672.24777225 C90.27246607 668.84662661 90.26657699 665.44565827 90.26069641 662.04450989 C90.26371829 659.57566277 90.26760795 657.10681659 90.27228898 654.63797206 C90.28042759 649.27736461 90.28237084 643.91680857 90.27878571 638.55620003 C90.27346837 630.58440106 90.27958441 622.61263895 90.28786864 614.64084399 C90.30309713 599.57281454 90.30481485 584.5048019 90.30234561 569.43676636 C90.30051174 557.79862371 90.30227453 546.16048656 90.30657005 534.52234459 C90.30717246 532.84928254 90.30777366 531.17622049 90.30837366 529.50315845 C90.30928093 526.98188276 90.3101896 524.46060707 90.31110601 521.93933139 C90.319534 498.501502 90.32387234 475.06367469 90.31969929 451.625844 C90.31954291 450.74254038 90.31938654 449.85923675 90.31922542 448.94916635 C90.31841966 444.47241982 90.31757389 439.9956733 90.31671212 435.51892678 C90.31654103 434.62986081 90.31636994 433.74079485 90.31619367 432.82478749 C90.31584701 431.02688016 90.31549848 429.22897283 90.31514808 427.43106551 C90.30979206 399.46176232 90.31771856 371.49249067 90.33618164 343.52319336 C90.35691036 312.08505226 90.36762262 280.64693069 90.36360615 249.20878237 C90.36321082 245.85476633 90.36284927 242.50075029 90.36250877 239.14673424 C90.36241804 238.32091737 90.36232731 237.49510051 90.36223383 236.64425889 C90.36106915 224.19210463 90.36770637 211.73997014 90.37832069 199.28782082 C90.39038493 185.12042359 90.39191763 170.95306981 90.37953053 156.78567193 C90.37291364 148.86383549 90.37450587 140.94210302 90.38811904 133.02027495 C90.39736465 127.09526549 90.39081764 121.17034008 90.37827124 115.24533447 C90.37562373 112.85575788 90.3779925 110.46616908 90.38600711 108.07660446 C90.47885751 78.31728896 84.42845986 53.88333827 63.625 31.4375 C62.75875 30.633125 61.8925 29.82875 61 29 C59.97519531 28.00226562 59.97519531 28.00226562 58.9296875 26.984375 C42.62632588 11.57219392 22.08130745 3.4725189 0 1 C0 0.67 0 0.34 0 0 Z " fill="#E0F3FA" transform="translate(681,0)"/>
<path d="M0 0 C14.49332747 10.39420455 25.99597795 24.68790778 29.14453125 42.56640625 C29.61623629 46.11164206 29.70703125 49.33248494 29.70703125 52.94140625 C-13.52296875 52.94140625 -56.75296875 52.94140625 -101.29296875 52.94140625 C-101.29296875 36.2381336 -95.33194148 23.39284597 -84.29296875 10.94140625 C-83.761875 10.31621094 -83.23078125 9.69101563 -82.68359375 9.046875 C-61.74487025 -13.91316091 -25.3987743 -16.08704856 0 0 Z " fill="#FDFEFE" transform="translate(577.29296875,131.05859375)"/>
<path d="M0 0 C3.54539088 2.80765236 6.79553089 5.81157998 10 9 C10.69996094 9.66515625 11.39992188 10.3303125 12.12109375 11.015625 C23.14711584 22.27807252 28 36.55892489 28 52 C-15.23 52 -58.46 52 -103 52 C-103 35.04697604 -95.70741695 20.10979953 -84 8 C-78.19561354 2.66179261 -72.00570744 -1.42873117 -65 -5 C-64.0925 -5.53625 -63.185 -6.0725 -62.25 -6.625 C-42.17063113 -15.1201176 -17.89778854 -12.41025903 0 0 Z " fill="#FDFEFE" transform="translate(268,132)"/>
<path d="M0 0 C1.5319425 1.1520405 3.05424894 2.31711206 4.5625 3.5 C6.109375 4.6446875 6.109375 4.6446875 7.6875 5.8125 C18.60957453 16.02226532 26.39219466 29.59723669 28.5625 44.5 C28.5625 46.81 28.5625 49.12 28.5625 51.5 C-14.6675 51.5 -57.8975 51.5 -102.4375 51.5 C-102.4375 31.33738062 -93.29240746 18.35490746 -79.59375 4.65625 C-58.34498793 -14.92594249 -23.63810864 -16.34019859 0 0 Z " fill="#FDFEFE" transform="translate(578.4375,264.5)"/>
<path d="M0 0 C12.02054824 10.03570818 21.29896199 23.07862999 24.1875 38.6875 C24.1875 41.9875 24.1875 45.2875 24.1875 48.6875 C-18.7125 48.6875 -61.6125 48.6875 -105.8125 48.6875 C-105.8125 31.20240759 -100.0126383 17.84261005 -87.75390625 5.4765625 C-63.43642885 -17.99403758 -27.25535401 -20.08539155 0 0 Z " fill="#FDFEFE" transform="translate(271.8125,267.3125)"/>
<path d="M0 0 C43.23 0 86.46 0 131 0 C129.83756943 15.11159743 129.83756943 15.11159743 126.9375 21.125 C126.62731934 21.7960376 126.31713867 22.4670752 125.99755859 23.15844727 C123.04241753 29.32470391 119.4230494 34.77880634 115 40 C114.33484375 40.78890625 113.6696875 41.5778125 112.984375 42.390625 C103.69688959 52.50366467 88.47377018 61.08524791 74.58081055 62.19287109 C53.63745593 62.81917893 37.36455655 59.7787275 20.8125 45.875 C11.94544451 37.47838314 6.03561138 27.47944917 2 16 C1.566875 14.783125 1.13375 13.56625 0.6875 12.3125 C0 9 0 9 0 0 Z " fill="#FEFEFE" transform="translate(476,622)"/>
<path d="M0 0 C43.23 0 86.46 0 131 0 C129.36060039 19.67279537 122.08486539 33.84779253 107.62109375 47.1953125 C95.49638734 57.43222353 81.63932469 62.60692886 65.8125 62.5 C64.31529419 62.49141968 64.31529419 62.49141968 62.7878418 62.48266602 C45.06383313 62.05961445 30.28689357 54.80735402 17.47265625 42.6015625 C10.83208892 35.61480446 6.63684678 27.867368 3 19 C2.63777344 18.12601562 2.27554687 17.25203125 1.90234375 16.3515625 C-0.21514046 10.83327033 0 5.97794676 0 0 Z " fill="#FEFEFE" transform="translate(321,372)"/>
<path d="M0 0 C42.9 0 85.8 0 130 0 C130 16.77742851 123.11797251 31.44406197 111.56640625 43.62109375 C94.72008835 59.23663043 77.23202691 62.85251756 54.88427734 62.17480469 C49.36928413 61.84056267 44.89836483 60.47111539 40 58 C38.93007812 57.50242187 37.86015625 57.00484375 36.7578125 56.4921875 C29.08772765 52.68371581 23.00722214 48.07112876 17 42 C16.37609375 41.40960937 15.7521875 40.81921875 15.109375 40.2109375 C10.98368193 35.99232342 8.33626922 31.21899866 5.6875 26 C5.34960449 25.33540771 5.01170898 24.67081543 4.66357422 23.98608398 C0.65414083 15.7286813 0 9.5157849 0 0 Z " fill="#FEFEFE" transform="translate(166,622)"/>
<path d="M0 0 C30.36 0 60.72 0 92 0 C92 27.39 92 54.78 92 83 C91.34 83 90.68 83 90 83 C89.5978125 81.329375 89.5978125 81.329375 89.1875 79.625 C83.23924113 56.02728826 71.40607358 36.03509907 52 21 C51.20464844 20.37738281 50.40929687 19.75476563 49.58984375 19.11328125 C34.99381646 8.26982191 17.88826576 3.03824317 0 1 C0 0.67 0 0.34 0 0 Z " fill="#FCFEFE" transform="translate(681,0)"/>
<path d="M0 0 C0.33 0 0.66 0 1 0 C1.07476562 0.80179688 1.14953125 1.60359375 1.2265625 2.4296875 C3.58658337 22.83692683 11.50277325 41.47676247 25 57 C25.45503906 57.598125 25.91007812 58.19625 26.37890625 58.8125 C41.48506714 78.2926836 67.52429453 87.68783363 91 91 C91 91.33 91 91.66 91 92 C60.97 92 30.94 92 0 92 C0 61.64 0 31.28 0 0 Z " fill="#FCFEFE" transform="translate(0,681)"/>
<path d="M0 0 C29.37 0 58.74 0 89 0 C89 0.33 89 0.66 89 1 C88.34257813 1.07476562 87.68515625 1.14953125 87.0078125 1.2265625 C60.92106279 4.83204823 37.13042965 18.03044145 21 39 C10.3687305 53.87052961 2.73234695 70.63712237 1 89 C0.67 89 0.34 89 0 89 C0 59.63 0 30.26 0 0 Z " fill="#FDFEFE" transform="translate(0,0)"/>
</svg>
